<svg xmlns="http://www.w3.org/2000/svg" version="1.1" xmlns:xlink="http://www.w3.org/1999/xlink" xmlns:svgjs="http://svgjs.dev/svgjs" width="100%" height="100%" viewBox="0 0 1000 600"><rect width="1000" height="600" x="0" y="0" fill="#3eb489"/><g><circle r="166.66666666666666" cx="368.3763987223307" cy="390.5986353843274" fill="#333333" transform="matrix(0.6197022342867811,0,0,0.6197022342867811,0,57.94513254402078)"/><path d="M307.53000448856415 315.598633624033L307.53000448856415 315.598633624033Q320.7777876231238 315.598633624033 328.9302695520837 319.5616456728329Q337.0827514810435 323.5246577216329 344.2161731688833 328.84641675859274L344.2161731688833 328.84641675859274Q346.8770526873632 330.8845372408327 348.2924141333632 330.8845372408327L348.2924141333632 330.8845372408327Q352.17050449540307 330.8845372408327 353.38771533896306 318.42935651603295L353.38771533896306 318.42935651603295L358.086715339683 318.42935651603295Q357.662106905883 325.9873866376728 357.46395630344296 336.7724408561926Q357.26580570100305 347.5858023036323 357.26580570100305 365.30612760755184L357.26580570100305 365.30612760755184L352.5668057002831 365.30612760755184Q351.1514442542831 356.75734447371207 349.11332377204315 348.80301314719225Q347.0752032898032 340.8486818206725 342.3762032890834 335.1589288077526L342.3762032890834 335.1589288077526Q336.4882996737234 327.60089868611277 326.89214906984364 323.43973603487285Q317.32430569488395 319.25026615471296 307.1337032836842 319.25026615471296L307.1337032836842 319.25026615471296Q296.94310087248437 319.25026615471296 288.6773900278446 324.26064567355286Q280.43998641212477 329.2427179634727 274.52377556784495 338.6124107359925Q268.607564723565 347.9821035085123 265.4371550845251 361.144964956312Q262.29505267440516 374.2795191751917 262.29505267440516 390.7826336355513L262.29505267440516 390.7826336355513Q262.29505267440516 427.46880231587045 274.09916713404493 444.50975412571006Q285.9315888226047 461.5223987066296 310.7853358143641 461.5223987066296L310.7853358143641 461.5223987066296Q318.1452153335639 461.5223987066296 323.5235888283638 459.37104930870964Q328.9302695520837 457.2480071397097 331.9874502754436 455.2098866574698L331.9874502754436 455.2098866574698Q335.8655406374835 452.54900713898985 336.88460087860346 450.1995071386299Q337.90366111972344 447.8500071382699 337.90366111972344 444.00022400515L337.90366111972344 444.00022400515L337.90366111972344 424.4116215925105Q337.90366111972344 416.0609890611107 336.26184184236354 411.9847480966308Q334.6483297939235 407.9085071321509 330.2607093113236 406.4931456861509Q325.87308882872367 405.0494770112309 317.32430569488395 404.85132640879095L317.32430569488395 404.85132640879095L317.32430569488395 400.77508544431106Q320.9759382255638 400.973236046751 325.87308882872367 401.086464962431Q330.7702394318836 401.199693878111 336.1769201556035 401.28461556487105Q341.5836008793234 401.39784448055104 346.0561430486832 401.39784448055104L346.0561430486832 401.39784448055104Q352.7932635316431 401.39784448055104 358.171637026443 401.199693878111Q363.5783177501628 400.973236046751 367.25825750976276 400.77508544431106L367.25825750976276 400.77508544431106L367.25825750976276 404.85132640879095Q362.75740811148285 405.0494770112309 360.5211370268029 406.2949950837109Q358.284865942123 407.5122059272709 357.57718521912295 411.1638384579508Q356.869504496123 414.8437782175507 356.869504496123 422.3735011102706L356.869504496123 422.3735011102706L356.869504496123 462.7396095501896L352.7932635316431 462.7396095501896Q352.5668057002831 459.2861276219497 351.2646731699631 455.2098866574698Q349.9342334107231 451.13364569298983 347.2733538922432 451.13364569298983L347.2733538922432 451.13364569298983Q346.0561430486832 451.13364569298983 344.83893220512334 451.7280975003099Q343.62172136156335 452.3508565365498 340.5645406382034 454.5871276212298L340.5645406382034 454.5871276212298Q333.82742015524354 459.68242882682966 326.2976972625237 462.6263806345096Q318.73966714088385 465.59863967110954 308.74721533212414 465.59863967110954L308.74721533212414 465.59863967110954Q287.7715587024046 465.59863967110954 272.797034603725 456.93662762158976Q257.79420327612536 448.27461557206993 249.86817917852548 431.9696517141503Q241.9138478520057 415.6646878562307 241.9138478520057 393.04721194915123L241.9138478520057 393.04721194915123Q241.9138478520057 369.1842179695918 250.4626309858455 351.86019387055217Q259.0397213486053 334.5361697715126 273.816094844845 325.05324808331284Q288.59246834108455 315.598633624033 307.53000448856415 315.598633624033ZM494.8389382521997 318.42935651603295L494.8389382521997 318.42935651603295Q494.01802861351985 326.1855372401128 493.7066490953998 333.4321878436326Q493.4235768061998 340.65053121823246 493.4235768061998 344.5286215802724L493.4235768061998 344.5286215802724Q493.4235768061998 349.42577218343223 493.6217274086398 353.70016375035215Q493.8198780110797 357.97455531727206 494.01802861351985 361.22988664307195L494.01802861351985 361.22988664307195L489.3473358417199 361.22988664307195Q487.9036671667999 346.9630432673923 485.46924547968 338.7256396516725Q483.00651656364005 330.4599288070327 476.8921551169202 326.8082962763528Q470.77779367020037 323.1283565167529 457.9546189694406 323.1283565167529L457.9546189694406 323.1283565167529L446.9431069195608 323.1283565167529L446.9431069195608 439.1030734019902Q446.9431069195608 447.25555533094996 448.47169728124084 451.33179629542985Q450.00028764292085 455.40803725990975 454.4728298122807 456.8233987059097Q458.9736792105606 458.2670673808297 467.5224623444004 458.6633685857097L467.5224623444004 458.6633685857097L467.5224623444004 462.7396095501896Q462.22901053636053 462.34330834530965 454.07652860740075 462.23007942962965Q445.92404667844096 462.11685051394966 437.57341414704115 462.11685051394966L437.57341414704115 462.11685051394966Q428.4018719769613 462.11685051394966 420.3343117347615 462.23007942962965Q412.2950587214817 462.34330834530965 407.39790811832177 462.7396095501896L407.39790811832177 462.7396095501896L407.39790811832177 458.6633685857097Q415.97499848108157 458.2670673808297 420.4475406504415 456.8233987059097Q424.92008281980145 455.40803725990975 426.44867318148135 451.33179629542985Q427.97726354316137 447.25555533094996 427.97726354316137 439.1030734019902L427.97726354316137 439.1030734019902L427.97726354316137 323.1283565167529L416.99405872220154 323.1283565167529Q404.34072739496196 323.1283565167529 398.1414442614821 326.8082962763528Q391.91385389908226 330.4599288070327 389.47943221196226 338.7256396516725Q387.0167032959223 346.9630432673923 385.6013418499223 361.22988664307195L385.6013418499223 361.22988664307195L380.90234184920246 361.22988664307195Q381.3269502830025 357.97455531727206 381.4118719697625 353.70016375035215Q381.5251008854424 349.42577218343223 381.5251008854424 344.5286215802724L381.5251008854424 344.5286215802724Q381.5251008854424 340.65053121823246 381.2137213673225 333.4321878436326Q380.90234184920246 326.1855372401128 380.0814322105225 318.42935651603295L380.0814322105225 318.42935651603295Q388.6585225732823 318.65581434739295 398.73589606880205 318.85396494983297Q408.84157679324176 319.052115552273 419.0321792044415 319.052115552273Q429.22278161564134 319.052115552273 437.57341414704115 319.052115552273L437.57341414704115 319.052115552273Q445.92404667844096 319.052115552273 456.0014201739607 319.052115552273Q466.1071008984004 319.052115552273 476.29770330960014 318.85396494983297Q486.4883057208 318.65581434739295 494.8389382521997 318.42935651603295Z " fill="#3eb489" transform="matrix(0.6197022342867811,0,0,0.6197022342867811,0,57.94513254402078)"/><path d="M668.0549223207994 325.17857683876474L668.0549223207994 325.17857683876474Q678.0849269132613 325.17857683876474 684.2572374316993 328.17900556300543Q690.4295479501372 331.1794342872462 695.8303196537705 335.20858143122655L695.8303196537705 335.20858143122655Q697.8448932257608 336.75165906083606 698.9164749129895 336.75165906083606L698.9164749129895 336.75165906083606Q701.8526087359966 336.75165906083606 702.7741689870134 327.32174021322237L702.7741689870134 327.32174021322237L706.331820188613 327.32174021322237Q706.0103456824444 333.0439864230243 705.8603242462324 341.20943887970793Q705.7103028100204 349.39632297013617 705.7103028100204 362.81252569424106L705.7103028100204 362.81252569424106L702.1526516084206 362.81252569424106Q701.0810699211918 356.34017230337895 699.5379922915823 350.31788322115295Q697.9949146619728 344.29559413892696 694.4372634603731 339.9878357562671L694.4372634603731 339.9878357562671Q689.9794836415011 334.26558954646515 682.7141598020897 331.1151393860124Q675.4702675964229 327.9432575918151 667.7548794483754 327.9432575918151L667.7548794483754 327.9432575918151Q660.0394913003278 327.9432575918151 653.7814542469115 331.73665676460513Q647.5448488272397 335.5086243036506 643.0656373746232 342.6024950731054Q638.5864259220067 349.6963658425602 636.1860829426142 359.6620755337883Q633.8071715969662 369.60635359127184 633.8071715969662 382.1009960643599L633.8071715969662 382.1009960643599Q633.8071715969662 409.87639339733107 642.7441628684545 422.77823691156607Q651.7025857736875 435.65864879205657 670.5195602014256 435.65864879205657L670.5195602014256 435.65864879205657Q676.0917849750156 435.65864879205657 680.1637953864852 434.0298446274688Q684.2572374316993 432.42247209662554 686.5718538761136 430.879394467016L686.5718538761136 430.879394467016Q689.5079876991205 428.86482089502584 690.2795265139252 427.085995294226Q691.05106532873 425.30716969342615 691.05106532873 422.39246750416373L691.05106532873 422.39246750416373L691.05106532873 407.5617769529168Q691.05106532873 401.2394449982667 689.8080305715446 398.1532897390477Q688.5864274481037 395.06713447982867 685.2645242176943 393.9955527925998Q681.942620987285 392.9025394716265 675.4702675964229 392.7525180354144L675.4702675964229 392.7525180354144L675.4702675964229 389.6663627761954Q678.2349483494733 389.81638421240746 681.942620987285 389.9021107473858Q685.6502936250967 389.98783728236407 689.7437356703108 390.0521321835978Q693.837177715525 390.1378587185761 697.2233758471681 390.1378587185761L697.2233758471681 390.1378587185761Q702.3241046783772 390.1378587185761 706.3961150898468 389.98783728236407Q710.4895571350609 389.81638421240746 713.2756695218558 389.6663627761954L713.2756695218558 389.6663627761954L713.2756695218558 392.7525180354144Q709.8680397564682 392.9025394716265 708.1749406906466 393.8455313563878Q706.481841624825 394.7670916074046 705.9460507812106 397.53177236045497Q705.4102599375963 400.31788474724993 705.4102599375963 406.01869932330726L705.4102599375963 406.01869932330726L705.4102599375963 436.58020904307335L702.3241046783772 436.58020904307335Q702.1526516084206 433.96554972623505 701.1667964561701 430.879394467016Q700.159509670175 427.793239207797 698.1449360981848 427.793239207797L698.1449360981848 427.793239207797Q697.2233758471681 427.793239207797 696.3018155961512 428.2433035164331Q695.3802553451345 428.7147994588138 693.0656389007202 430.40789852463536L693.0656389007202 430.40789852463536Q687.9649100695109 434.2655925986591 682.2640954934536 436.4944825080951Q676.5418492836517 438.7448040512756 668.9764825718162 438.7448040512756L668.9764825718162 438.7448040512756Q653.095641967085 438.7448040512756 641.7583077162041 432.18672412543515Q630.3995418315785 425.62864419959476 624.398684383097 413.2840231627187Q618.3763953008711 400.93940212584266 618.3763953008711 383.815526763926L618.3763953008711 383.815526763926Q618.3763953008711 365.74865951724803 624.8487486917332 352.63249966556725Q631.3425337163399 339.5163398138864 642.5298465310087 332.3367425094533Q653.7171593456777 325.17857683876474 668.0549223207994 325.17857683876474ZM770.9910591960003 354.9471161099815L770.9910591960003 354.9471161099815Q775.1487961424482 354.9471161099815 778.3206779366454 356.64021517580306Q781.4711280970982 358.35474587536913 783.249953697898 361.05513172718577Q785.0287792986979 363.75551757900246 785.0287792986979 367.1417157106455L785.0287792986979 367.1417157106455Q785.0287792986979 370.9994097846693 782.6284363193054 373.93554360767627Q780.2495249736573 376.87167743068323 776.220377829677 376.87167743068323L776.220377829677 376.87167743068323Q772.984201134246 376.87167743068323 770.5195632536196 374.7713773237148Q768.0549253729934 372.6925088504908 768.0549253729934 368.83481477646706L768.0549253729934 368.83481477646706Q768.0549253729934 365.8986809534601 769.6622979038366 363.8198124802361Q771.2911020684244 361.7409440070122 773.3056756404146 360.4979092498268L773.3056756404146 360.4979092498268Q772.2126623194412 358.9548316202173 770.0480673112389 358.9548316202173L770.0480673112389 358.9548316202173Q765.2688129861984 358.9548316202173 761.2610974759626 361.82667054199055Q757.2533819657268 364.67707783001924 754.4672695789319 369.1562892826357Q751.7025888258814 373.6140691015076 750.159511196272 378.6290713977385Q748.6164335666624 383.6440736939694 748.6164335666624 387.9732637103739L748.6164335666624 387.9732637103739L748.6164335666624 420.6779368045976Q748.6164335666624 428.2433035164331 753.0099184843006 430.7936679320377Q757.4034034019388 433.3440323476423 764.9687701137743 433.3440323476423L764.9687701137743 433.3440323476423L764.9687701137743 436.58020904307335Q761.4111189121746 436.4301876068613 754.9387655213126 436.19443963567096Q748.4449804967059 435.9586916644806 741.201088291039 435.9586916644806L741.201088291039 435.9586916644806Q735.9503380236177 435.9586916644806 730.7853142911748 436.19443963567096Q725.6202905587319 436.4301876068613 722.984199608149 436.58020904307335L722.984199608149 436.58020904307335L722.984199608149 433.3440323476423Q729.3279631965436 433.3440323476423 732.0283490483603 431.029415903228Q734.7287349001768 428.7147994588138 734.7287349001768 422.2210144342071L734.7287349001768 422.2210144342071L734.7287349001768 373.93554360767627Q734.7287349001768 366.9916942744335 732.242665385806 363.6697910440241Q729.7780275051797 360.34788781361476 722.984199608149 360.34788781361476L722.984199608149 360.34788781361476L722.984199608149 357.11171111818373Q727.9349070031461 357.5832070605644 732.5641398919746 357.5832070605644L732.5641398919746 357.5832070605644Q737.0433513445911 357.5832070605644 741.1153617560607 357.0259845832054Q745.2088038012748 356.490193739591 748.6164335666624 355.41861205236216L748.6164335666624 355.41861205236216L748.6164335666624 374.707082422481Q750.309532632484 370.2278709698645 753.4599827929368 365.6843646160143Q756.6318645871341 361.11942662841955 761.1110760397505 358.0332713692005Q765.5902874923671 354.9471161099815 770.9910591960003 354.9471161099815ZM813.5757154464739 437.6517907303022L813.5757154464739 437.6517907303022Q807.2533834918237 437.6517907303022 802.6241506029952 435.2728793846542Q797.9949177141667 432.8725364052616 795.5945747347741 428.5647780226018Q793.1942317553816 424.2355880061973 793.1942317553816 418.5347734301399L793.1942317553816 418.5347734301399Q793.1942317553816 411.7409455331092 796.3661135495789 407.4117555167048Q799.5379953437762 403.1039971340449 804.4672711050288 400.467906183462Q809.3965468662814 397.85324686662364 814.883045104893 396.0744212658238Q820.3695433435046 394.29559566502394 825.2988191047572 392.6882231341807Q830.2280948660098 391.0594189695929 833.399976660207 388.89482396139067Q836.5718584544044 386.73022895318843 836.5718584544044 383.1940093853333L836.5718584544044 383.1940093853333L836.5718584544044 373.6140691015076Q836.5718584544044 367.1417157106455 834.6430114173925 363.75551757900246Q832.7141643803807 360.34788781361476 829.456556051205 359.19057959140764Q826.220379355774 358.0332713692005 822.2126638455381 358.0332713692005L822.2126638455381 358.0332713692005Q818.3549697715144 358.0332713692005 813.9614848538762 359.1262846901739Q809.567999936238 360.19786637740276 806.9319089856551 363.5840645090458L806.9319089856551 363.5840645090458Q809.8680428086622 364.2055818876385 812.0326378168643 366.6702197682648Q814.1972328250665 369.1562892826357 814.1972328250665 373.0139833566595L814.1972328250665 373.0139833566595Q814.1972328250665 376.87167743068323 811.7111633106957 379.1005673401192Q809.2465254300694 381.32945724955516 805.3888313560457 381.32945724955516L805.3888313560457 381.32945724955516Q800.9096199034291 381.32945724955516 798.8307514302052 378.47904996152647Q796.7518829569813 375.6286426734978 796.7518829569813 372.0709914718981L796.7518829569813 372.0709914718981Q796.7518829569813 368.0632759616623 798.7664565289715 365.59863808103603Q800.7595984672171 363.1340002004097 803.8457537264361 360.9694051922075L803.8457537264361 360.9694051922075Q807.4034049280358 358.5047673115812 813.0399246028594 356.72594171078134Q818.6550126439384 354.9471161099815 825.7703150471378 354.9471161099815L825.7703150471378 354.9471161099815Q832.0926470017879 354.9471161099815 836.5718584544044 356.4258988383573Q841.0296382732763 357.88324993298846 843.9657720962833 360.66936231978343L843.9657720962833 360.66936231978343Q847.9734876065191 364.3556033238506 849.2165223637045 369.6920801262501Q850.4595571208899 375.0071252949051 850.4595571208899 382.42247057052856L850.4595571208899 382.42247057052856L850.4595571208899 425.30716969342615Q850.4595571208899 429.1648637674499 851.6168653430971 430.879394467016Q852.7741735653042 432.57249353283754 855.2388114459305 432.57249353283754L855.2388114459305 432.57249353283754Q856.9319105117521 432.57249353283754 858.4749881413616 431.8009547180328Q860.018065770971 431.029415903228 862.1826607791734 429.3363168374065L862.1826607791734 429.3363168374065L863.8757598449948 431.95097615424487Q860.6395831495638 434.41561403487117 857.7034493265568 436.04441819945896Q854.7673155035499 437.6517907303022 849.8380397422973 437.6517907303022L849.8380397422973 437.6517907303022Q845.3588282896807 437.6517907303022 842.4226944666738 436.1087131006927Q839.4865606436668 434.56563547108317 838.0292095490356 431.5652067468425Q836.5718584544044 428.5647780226018 836.5718584544044 423.93554513377325L836.5718584544044 423.93554513377325Q832.392689874212 430.879394467016 826.6061487631763 434.2655925986591Q820.8196076521407 437.6517907303022 813.5757154464739 437.6517907303022ZM819.1265085863191 431.47948021186414L819.1265085863191 431.47948021186414Q824.2272374175284 431.47948021186414 828.6207223351665 428.5647780226018Q833.0142072528048 425.62864419959476 836.5718584544044 419.7563765535808L836.5718584544044 419.7563765535808L836.5718584544044 389.5163413399834Q834.7073063186263 392.1310006568217 831.1710867507711 393.9098262576216Q827.6134355491714 395.6886518584214 823.4556986027236 397.46747745922124Q819.2765300225311 399.2463030600211 815.5045624834858 401.6252144056691Q811.7111633106957 404.0255573850617 809.2465254300694 407.88325145908544Q806.781887549443 411.7409455331092 806.781887549443 417.91325605154725L806.781887549443 417.91325605154725Q806.781887549443 424.0855665699853 810.1037907798524 427.793239207797Q813.4256940102617 431.47948021186414 819.1265085863191 431.47948021186414ZM938.715024881056 315.59863655493905L938.715024881056 315.59863655493905L938.715024881056 419.7563765535808Q938.715024881056 426.7002258868236 941.2653892966606 430.02212911723296Q943.8157537122652 433.3440323476423 950.4381285393393 433.3440323476423L950.4381285393393 433.3440323476423L950.4381285393393 436.58020904307335Q945.6588742142987 436.1087131006927 940.8796198892582 436.1087131006927L940.8796198892582 436.1087131006927Q936.4004084366417 436.1087131006927 932.3069663914276 436.58020904307335Q928.2135243462136 437.0517049854541 924.8273262145705 438.2733081088949L924.8273262145705 438.2733081088949L924.8273262145705 334.1155681102531Q924.8273262145705 327.17171877701037 922.362688333944 323.849815546601Q919.8980504533179 320.5493439499362 913.104222556287 320.5493439499362L913.104222556287 320.5493439499362L913.104222556287 317.2917356207606Q918.0334983175397 317.7632315631413 922.6627312063682 317.7632315631413L922.6627312063682 317.7632315631413Q927.1419426589847 317.7632315631413 931.2353847041987 317.22744071952684Q935.3288267494129 316.69164987591245 938.715024881056 315.59863655493905ZM906.3103946592563 354.9471161099815L906.3103946592563 354.9471161099815Q913.104222556287 354.9471161099815 919.0407851035349 358.1832928054125Q924.9773476507825 361.44090113458816 926.9919212227726 369.3063107188477L926.9919212227726 369.3063107188477L924.9773476507825 370.84938834845724Q922.8127526425802 364.3556033238506 918.26924628873 361.44090113458816Q913.7257399348797 358.5047673115812 907.5534294164416 358.5047673115812L907.5534294164416 358.5047673115812Q898.4449850749967 358.5047673115812 892.3369694577924 367.91325452545027Q886.2503854743327 377.32174173931935 886.4004069105447 396.93168661560685L886.4004069105447 396.93168661560685Q886.4004069105447 409.42632908869496 888.8007498899373 417.6775080803569Q891.1796612355853 425.9286870720189 895.8946206593922 430.02212911723296Q900.6095800831989 434.11557116244705 907.3819763464852 434.11557116244705L907.3819763464852 434.11557116244705Q913.8757613710919 434.11557116244705 919.1265116385131 428.5647780226018Q924.3558302721897 422.99255324901185 925.4488435931631 412.1910098417453L925.4488435931631 412.1910098417453L927.2919640951967 414.35560484994755Q926.0703609717558 426.0787085082309 919.8123239183395 432.42247209662554Q913.5542868649233 438.7448040512756 902.9241965276132 438.7448040512756L902.9241965276132 438.7448040512756Q893.3442562437875 438.7448040512756 886.1646589393544 434.11557116244705Q879.0064932686658 429.48633827361857 875.2130940958758 420.2278724959615Q871.4411265568303 410.96940671830447 871.4411265568303 396.93168661560685L871.4411265568303 396.93168661560685Q871.4411265568303 382.8725348791647 876.3061074168492 373.5497742002739Q881.1496566431234 364.2055818876385 889.1007927623614 359.57634899881003Q897.0519288815992 354.9471161099815 906.3103946592563 354.9471161099815ZM1029.9066264642288 357.11171111818373L1029.9066264642288 357.11171111818373L1029.9066264642288 360.19786637740276Q1026.9704926412219 360.4979092498268 1024.5058547605959 362.81252569424106Q1022.0412168799694 365.1271421386553 1019.876621871767 370.9994097846693L1019.876621871767 370.9994097846693L994.5658624194223 437.35174785787814L991.9512031025839 437.35174785787814L963.5542883910201 368.9848362126791Q960.6181545680132 362.9839787641977 957.7677472799845 361.65521747203394Q954.9173399919558 360.34788781361476 953.0742194899223 360.34788781361476L953.0742194899223 360.34788781361476L953.0742194899223 357.11171111818373Q956.4604176215653 357.5832070605644 960.168090259377 357.7975233980102Q963.8757628971888 358.0332713692005 968.1835212798486 358.0332713692005L968.1835212798486 358.0332713692005Q972.9627756048893 358.0332713692005 978.2992524072888 357.7332284967764Q983.6142975759437 357.4117539906078 988.2435304647722 357.11171111818373L988.2435304647722 357.11171111818373L988.2435304647722 360.34788781361476Q984.3858363907485 360.34788781361476 981.3854076665078 360.8836786572292Q978.3635473085225 361.44090113458816 977.5920084937178 364.1412869864048Q976.8204696789129 366.8416728382214 979.4565606294959 373.31402622908354L979.4565606294959 373.31402622908354L998.4235564934461 420.37789393217355L997.5019962424293 420.6779368045976L1015.0973675467266 374.707082422481Q1017.1119411187168 369.60635359127184 1016.7261717113144 366.6059248670311Q1016.3404023039121 363.5840645090458 1013.554289917117 362.04098687943633Q1010.7681775303221 360.4979092498268 1005.2173843904767 360.19786637740276L1005.2173843904767 360.19786637740276L1005.2173843904767 357.11171111818373Q1008.0034967772718 357.26173255439573 1009.9966387155174 357.34745908937407Q1012.0112122875076 357.4117539906078 1013.9400593245194 357.49748052558607Q1015.8689063615315 357.5832070605644 1018.1835228059457 357.5832070605644L1018.1835228059457 357.5832070605644Q1021.7411740075453 357.5832070605644 1024.591581295574 357.4117539906078Q1027.4419885836028 357.26173255439573 1029.9066264642288 357.11171111818373ZM991.6511602301599 436.1087131006927L994.5658624194223 437.35174785787814L989.3365437857457 450.767950581983Q987.7934661561361 454.6256446560068 986.1646619915483 457.2617356065897Q984.5358578269605 459.87639492342805 982.692737324927 461.56949398924957L982.692737324927 461.56949398924957Q980.2280994443007 463.88411043366386 976.8204696789129 464.74137578344687Q973.43427154727 465.5986411332299 970.648159160475 465.5986411332299L970.648159160475 465.5986411332299Q967.7334569712126 465.5986411332299 965.3331139918199 464.50562781225653Q962.9327710124275 463.43404612502775 961.5611464527746 461.3551776518038Q960.168090259377 459.25487754483527 960.168090259377 456.3401753555729L960.168090259377 456.3401753555729Q960.168090259377 452.63250271776116 962.3326852675792 450.38218117458064Q964.4758486420369 448.1532912651447 968.3335427160607 448.1532912651447L968.3335427160607 448.1532912651447Q971.5911510452363 448.1532912651447 973.9057674896507 449.99641176717824Q976.2203839340649 451.8609639029564 976.2203839340649 455.39718347081157L976.2203839340649 455.39718347081157Q976.2203839340649 458.0332744213945 974.9773491768794 459.726373487216Q973.734314419694 461.4194725530375 972.0412153538724 462.3410328040543L972.0412153538724 462.3410328040543Q972.3626898600411 462.51248587401096 972.5770061974869 462.51248587401096Q972.8127541686772 462.51248587401096 972.9627756048893 462.51248587401096L972.9627756048893 462.51248587401096Q977.1419441850817 462.51248587401096 980.3781208805127 459.6406469522377Q983.6142975759437 456.790239664209 986.0789354565701 450.467907709559L986.0789354565701 450.467907709559L991.6511602301599 436.1087131006927ZM1153.5028582692016 327.32174021322237L1153.5028582692016 327.32174021322237Q1152.9027725243536 333.1940078592363 1152.6670245531632 338.6805060978479Q1152.4312765819727 344.14557270271496 1152.4312765819727 347.0817065257219L1152.4312765819727 347.0817065257219Q1152.4312765819727 350.7893791635337 1152.581298018185 354.0255558589647Q1152.7313194543967 357.26173255439573 1152.9027725243536 359.72637043502203L1152.9027725243536 359.72637043502203L1149.3451213227536 359.72637043502203Q1148.2735396355251 348.9248270277555 1146.4089874997467 342.6882216080837Q1144.5658669977133 336.4301845546674 1139.9366341088848 333.66550380161704Q1135.3074012200564 330.87939141482207 1125.5774395000185 330.87939141482207L1125.5774395000185 330.87939141482207L1117.2405339733782 330.87939141482207L1117.2405339733782 418.684794866352Q1117.2405339733782 424.85710538479003 1118.3978421955853 427.94326064400906Q1119.5551504177924 431.029415903228 1122.9627801831803 432.10099759045687Q1126.3489783148234 433.19401091143027 1132.84276333943 433.4940537838544L1132.84276333943 433.4940537838544L1132.84276333943 436.58020904307335Q1128.8136161954494 436.2801661706493 1122.6413056770116 436.19443963567096Q1116.4689951585733 436.1087131006927 1110.1466632039233 436.1087131006927L1110.1466632039233 436.1087131006927Q1103.2028138706805 436.1087131006927 1097.116229887221 436.19443963567096Q1091.0082142700167 436.2801661706493 1087.3219732659495 436.58020904307335L1087.3219732659495 436.58020904307335L1087.3219732659495 433.4940537838544Q1093.7943266568113 433.19401091143027 1097.1805247884545 432.10099759045687Q1100.5881545538423 431.029415903228 1101.7454627760494 427.94326064400906Q1102.9027709982565 424.85710538479003 1102.9027709982565 418.684794866352L1102.9027709982565 418.684794866352L1102.9027709982565 330.87939141482207L1094.5658654716162 330.87939141482207Q1085.0073568215353 330.87939141482207 1080.292397397728 333.66550380161704Q1075.5774379739214 336.4301845546674 1073.734317471888 342.6882216080837Q1071.8911969698543 348.9248270277555 1070.7981836488811 359.72637043502203L1070.7981836488811 359.72637043502203L1067.2619640810258 359.72637043502203Q1067.5620069534498 357.26173255439573 1067.6477334884285 354.0255558589647Q1067.712028389662 350.7893791635337 1067.712028389662 347.0817065257219L1067.712028389662 347.0817065257219Q1067.712028389662 344.14557270271496 1067.4762804184716 338.6805060978479Q1067.2619640810258 333.1940078592363 1066.640446702433 327.32174021322237L1066.640446702433 327.32174021322237Q1073.1128000932954 327.493193283179 1080.763893340109 327.64321471939104Q1088.3935549531784 327.79323615560304 1096.108943101226 327.79323615560304Q1103.8243312492732 327.79323615560304 1110.1466632039233 327.79323615560304L1110.1466632039233 327.79323615560304Q1116.4689951585733 327.79323615560304 1124.1200884053874 327.79323615560304Q1131.7497500184563 327.79323615560304 1139.465138166504 327.64321471939104Q1147.1805263145516 327.493193283179 1153.5028582692016 327.32174021322237ZM1193.622876639049 354.9471161099815L1193.622876639049 354.9471161099815Q1203.5028597952987 354.9471161099815 1211.3682693795581 359.2763061263859Q1219.2551105975622 363.5840645090458 1223.9486383876247 372.84253028670287Q1228.6635978114314 382.1009960643599 1228.6635978114314 396.93168661560685L1228.6635978114314 396.93168661560685Q1228.6635978114314 411.7409455331092 1223.9486383876247 420.91368477578794Q1219.2551105975622 430.10785565221124 1211.3682693795581 434.41561403487117Q1203.5028597952987 438.7448040512756 1193.622876639049 438.7448040512756L1193.622876639049 438.7448040512756Q1183.914346552756 438.7448040512756 1175.9632104335178 434.41561403487117Q1168.0120743142802 430.10785565221124 1163.3185465242177 420.91368477578794Q1158.603587100411 411.7409455331092 1158.603587100411 396.93168661560685L1158.603587100411 396.93168661560685Q1158.603587100411 382.1009960643599 1163.3185465242177 372.84253028670287Q1168.0120743142802 363.5840645090458 1175.9632104335178 359.2763061263859Q1183.914346552756 354.9471161099815 1193.622876639049 354.9471161099815ZM1193.622876639049 358.0332713692005L1193.622876639049 358.0332713692005Q1184.8359068037726 358.0332713692005 1179.1993871289487 367.1417157106455Q1173.5628674541254 376.2501600520905 1173.5628674541254 396.93168661560685L1173.5628674541254 396.93168661560685Q1173.5628674541254 417.5917815453786 1179.1993871289487 426.6359309855899Q1184.8359068037726 435.65864879205657 1193.622876639049 435.65864879205657L1193.622876639049 435.65864879205657Q1202.4312781080698 435.65864879205657 1208.0677977828936 426.6359309855899Q1213.6828858239724 417.5917815453786 1213.6828858239724 396.93168661560685L1213.6828858239724 396.93168661560685Q1213.6828858239724 376.2501600520905 1208.0677977828936 367.1417157106455Q1202.4312781080698 358.0332713692005 1193.622876639049 358.0332713692005ZM1310.5967336169474 315.59863655493905L1310.5967336169474 315.59863655493905L1310.5967336169474 419.7563765535808Q1310.5967336169474 426.7002258868236 1313.147098032552 430.02212911723296Q1315.6974624481563 433.3440323476423 1322.3198372752308 433.3440323476423L1322.3198372752308 433.3440323476423L1322.3198372752308 436.58020904307335Q1317.5405829501901 436.1087131006927 1312.7613286251494 436.1087131006927L1312.7613286251494 436.1087131006927Q1308.2821171725332 436.1087131006927 1304.1886751273187 436.58020904307335Q1300.0952330821046 437.0517049854541 1296.7090349504615 438.2733081088949L1296.7090349504615 438.2733081088949L1296.7090349504615 334.1155681102531Q1296.7090349504615 327.17171877701037 1294.2443970698355 323.849815546601Q1291.779759189209 320.5493439499362 1284.9859312921785 320.5493439499362L1284.9859312921785 320.5493439499362L1284.9859312921785 317.2917356207606Q1289.915207053431 317.7632315631413 1294.5444399422595 317.7632315631413L1294.5444399422595 317.7632315631413Q1299.0236513948762 317.7632315631413 1303.1170934400902 317.22744071952684Q1307.2105354853043 316.69164987591245 1310.5967336169474 315.59863655493905ZM1278.1921033951476 354.9471161099815L1278.1921033951476 354.9471161099815Q1284.9859312921785 354.9471161099815 1290.922493839426 358.1832928054125Q1296.8590563866737 361.44090113458816 1298.873629958664 369.3063107188477L1298.873629958664 369.3063107188477L1296.8590563866737 370.84938834845724Q1294.6944613784713 364.3556033238506 1290.1509550246215 361.44090113458816Q1285.6074486707712 358.5047673115812 1279.435138152333 358.5047673115812L1279.435138152333 358.5047673115812Q1270.3266938108882 358.5047673115812 1264.218678193684 367.91325452545027Q1258.1320942102238 377.32174173931935 1258.282115646436 396.93168661560685L1258.282115646436 396.93168661560685Q1258.282115646436 409.42632908869496 1260.6824586258285 417.6775080803569Q1263.0613699714768 425.9286870720189 1267.7763293952835 430.02212911723296Q1272.4912888190902 434.11557116244705 1279.2636850823765 434.11557116244705L1279.2636850823765 434.11557116244705Q1285.757470106983 434.11557116244705 1291.0082203744046 428.5647780226018Q1296.237539008081 422.99255324901185 1297.3305523290546 412.1910098417453L1297.3305523290546 412.1910098417453L1299.173672831088 414.35560484994755Q1297.9520697076473 426.0787085082309 1291.6940326542308 432.42247209662554Q1285.4359956008143 438.7448040512756 1274.8059052635044 438.7448040512756L1274.8059052635044 438.7448040512756Q1265.2259649796788 438.7448040512756 1258.0463676752456 434.11557116244705Q1250.8882020045571 429.48633827361857 1247.094802831767 420.2278724959615Q1243.3228352927217 410.96940671830447 1243.3228352927217 396.93168661560685L1243.3228352927217 396.93168661560685Q1243.3228352927217 382.8725348791647 1248.1878161527407 373.5497742002739Q1253.031365379015 364.2055818876385 1260.982501498253 359.57634899881003Q1268.9336376174906 354.9471161099815 1278.1921033951476 354.9471161099815ZM1400.2452575705106 315.59863655493905L1400.2452575705106 315.59863655493905L1400.2452575705106 419.7563765535808Q1400.2452575705106 426.7002258868236 1402.7956219861153 430.02212911723296Q1405.34598640172 433.3440323476423 1411.968361228794 433.3440323476423L1411.968361228794 433.3440323476423L1411.968361228794 436.58020904307335Q1407.1891069037533 436.1087131006927 1402.409852578713 436.1087131006927L1402.409852578713 436.1087131006927Q1397.9306411260964 436.1087131006927 1393.8371990808823 436.58020904307335Q1389.765188669413 437.0517049854541 1386.3575589040252 438.2733081088949L1386.3575589040252 438.2733081088949L1386.3575589040252 334.1155681102531Q1386.3575589040252 327.17171877701037 1383.8929210233987 323.849815546601Q1381.4282831427727 320.5493439499362 1374.6344552457417 320.5493439499362L1374.6344552457417 320.5493439499362L1374.6344552457417 317.2917356207606Q1379.5637310069947 317.7632315631413 1384.1929638958231 317.7632315631413L1384.1929638958231 317.7632315631413Q1388.6721753484394 317.7632315631413 1392.7656173936534 317.22744071952684Q1396.8590594388675 316.69164987591245 1400.2452575705106 315.59863655493905ZM1367.8406273487108 354.9471161099815L1367.8406273487108 354.9471161099815Q1374.6344552457417 354.9471161099815 1380.5710177929896 358.1832928054125Q1386.5075803402374 361.44090113458816 1388.5221539122276 369.3063107188477L1388.5221539122276 369.3063107188477L1386.5075803402374 370.84938834845724Q1384.3644169657796 364.3556033238506 1379.7994789781847 361.44090113458816Q1375.2559726243344 358.5047673115812 1369.0836621058966 358.5047673115812L1369.0836621058966 358.5047673115812Q1359.9752177644514 358.5047673115812 1353.8886337809918 367.91325452545027Q1347.7806181637875 377.32174173931935 1347.9306395999997 396.93168661560685L1347.9306395999997 396.93168661560685Q1347.9306395999997 409.42632908869496 1350.3309825793922 417.6775080803569Q1352.7313255587846 425.9286870720189 1357.4248533488471 430.02212911723296Q1362.1398127726538 434.11557116244705 1368.9336406696843 434.11557116244705L1368.9336406696843 434.11557116244705Q1375.4059940605466 434.11557116244705 1380.6567443279678 428.5647780226018Q1385.907494595389 422.99255324901185 1386.9790762826178 412.1910098417453L1386.9790762826178 412.1910098417453L1388.8221967846516 414.35560484994755Q1387.6005936612105 426.0787085082309 1381.3425566077944 432.42247209662554Q1375.1059511881226 438.7448040512756 1364.454429217068 438.7448040512756L1364.454429217068 438.7448040512756Q1354.8744889332424 438.7448040512756 1347.7163232625535 434.11557116244705Q1340.5367259581208 429.48633827361857 1336.7433267853307 420.2278724959615Q1332.971359246285 410.96940671830447 1332.971359246285 396.93168661560685L1332.971359246285 396.93168661560685Q1332.971359246285 382.8725348791647 1337.8363401063039 373.5497742002739Q1342.7013209663228 364.2055818876385 1350.6310254518162 359.57634899881003Q1358.5821615710538 354.9471161099815 1367.8406273487108 354.9471161099815Z " fill="#333333" transform="matrix(0.6197022342867811,0,0,0.6197022342867811,0,57.94513254402078)"/></g></svg>